<?xml version="1.0" encoding="utf-8"?>
<!-- Generator: Adobe Illustrator 19.1.1, SVG Export Plug-In . SVG Version: 6.00 Build 0)  -->
<svg version="1.1" xmlns="http://www.w3.org/2000/svg" xmlns:xlink="http://www.w3.org/1999/xlink" x="0px" y="0px"
	 viewBox="0 0 960 560" style="enable-background:new 0 0 960 560;" xml:space="preserve">
<style type="text/css">
	.st0{fill:#D24135;}
	.st1{fill:#4A5E5D;stroke:#000000;stroke-miterlimit:10;}
</style>
<g id="base">
</g>
<g id="home">
	<g>
		<circle class="st0" cx="212.8" cy="147.8" r="29.6"/>
		<path class="st1" d="M200,158l12.6-9.4l-12.3-9.8c-1.3-1.1-3.4-0.2-3.5,1.4l-0.3,16.4C196.5,158.2,198.6,159.1,200,158z"/>
		<path class="st1" d="M226.7,139.9l-11.5,8.2l10.6,9.4c1.2,1,3,0.3,3.1-1.2l0.8-14.9C229.8,139.9,228,139,226.7,139.9z"/>
		<path class="st1" d="M226.6,157l-13.1-11.1l-13.2,11c-1.4,1.2-0.3,3.1,2,3.1l22.3,0.1C226.8,160,228,158.2,226.6,157z"/>
		<path class="st1" d="M197.6,139.7l15.2,15l15.2-15c1.7-1.6,0.3-4.1-2.3-4.1h-25.9C197.3,135.5,195.9,138,197.6,139.7z"/>
	</g>
</g>
</svg>
